<?xml version="1.0" encoding="utf-8" standalone="no"?>
<!DOCTYPE svg PUBLIC "-//W3C//DTD SVG 1.1//EN"
  "http://www.w3.org/Graphics/SVG/1.1/DTD/svg11.dtd">
<!-- Created with matplotlib (https://matplotlib.org/) -->
<svg height="298.19625pt" version="1.1" viewBox="0 0 410.11179 298.19625" width="410.11179pt" xmlns="http://www.w3.org/2000/svg" xmlns:xlink="http://www.w3.org/1999/xlink">
 <defs>
  <style type="text/css">
*{stroke-linecap:butt;stroke-linejoin:round;}
  </style>
 </defs>
 <g id="figure_1">
  <g id="patch_1">
   <path d="M 0 298.19625 
L 410.11179 298.19625 
L 410.11179 0 
L 0 0 
z
" style="fill:#ffffff;"/>
  </g>
  <g id="axes_1">
   <g id="patch_2">
    <path d="M 18.348727 260.64 
L 398.508727 260.64 
L 398.508727 7.2 
L 18.348727 7.2 
z
" style="fill:#ffffff;"/>
   </g>
   <g id="PolyCollection_1">
    <path clip-path="url(#p82a4adcb4b)" d="M 18.348727 249.12 
L 18.348727 246.340375 
L 22.150327 246.340375 
L 22.150327 247.730188 
L 25.951927 247.730188 
L 25.951927 242.479786 
L 29.753527 242.479786 
L 29.753527 243.869598 
L 33.555127 243.869598 
L 33.555127 241.707668 
L 37.356727 241.707668 
L 37.356727 243.560751 
L 41.158327 243.560751 
L 41.158327 239.700161 
L 44.959927 239.700161 
L 44.959927 239.545737 
L 48.761527 239.545737 
L 48.761527 240.009008 
L 52.563127 240.009008 
L 52.563127 235.067453 
L 56.364727 235.067453 
L 56.364727 233.21437 
L 60.166327 233.21437 
L 60.166327 230.280322 
L 63.967927 230.280322 
L 63.967927 228.581662 
L 67.769527 228.581662 
L 67.769527 233.21437 
L 71.571127 233.21437 
L 71.571127 231.361287 
L 75.372727 231.361287 
L 75.372727 218.389705 
L 79.174327 218.389705 
L 79.174327 219.47067 
L 82.975927 219.47067 
L 82.975927 218.389705 
L 86.777527 218.389705 
L 86.777527 213.293727 
L 90.579127 213.293727 
L 90.579127 207.116783 
L 94.380727 207.116783 
L 94.380727 208.197748 
L 98.182327 208.197748 
L 98.182327 198.005791 
L 101.983927 198.005791 
L 101.983927 191.52 
L 105.785527 191.52 
L 105.785527 182.409008 
L 109.587127 182.409008 
L 109.587127 183.79882 
L 113.388727 183.79882 
L 113.388727 175.459946 
L 117.190327 175.459946 
L 117.190327 175.305523 
L 120.991927 175.305523 
L 120.991927 167.42992 
L 124.793527 167.42992 
L 124.793527 163.723753 
L 128.595127 163.723753 
L 128.595127 147.818123 
L 132.396727 147.818123 
L 132.396727 142.876568 
L 136.198327 142.876568 
L 136.198327 136.390777 
L 139.999927 136.390777 
L 139.999927 128.051903 
L 143.801527 128.051903 
L 143.801527 113.072815 
L 147.603127 113.072815 
L 147.603127 96.549491 
L 151.404727 96.549491 
L 151.404727 101.182198 
L 155.206327 101.182198 
L 155.206327 88.673887 
L 159.007927 88.673887 
L 159.007927 74.62134 
L 162.809527 74.62134 
L 162.809527 71.378445 
L 166.611127 71.378445 
L 166.611127 63.348418 
L 170.412727 63.348418 
L 170.412727 46.979517 
L 174.214327 46.979517 
L 174.214327 50.685684 
L 178.015927 50.685684 
L 178.015927 45.126434 
L 181.817527 45.126434 
L 181.817527 46.361823 
L 185.619127 46.361823 
L 185.619127 45.280858 
L 189.420727 45.280858 
L 189.420727 22.117319 
L 193.222327 22.117319 
L 193.222327 30.610617 
L 197.023927 30.610617 
L 197.023927 22.889437 
L 200.825527 22.889437 
L 200.825527 36.32429 
L 204.627127 36.32429 
L 204.627127 37.405255 
L 208.428727 37.405255 
L 208.428727 18.72 
L 212.230327 18.72 
L 212.230327 31.228311 
L 216.031927 31.228311 
L 216.031927 33.699088 
L 219.833527 33.699088 
L 219.833527 34.007936 
L 223.635127 34.007936 
L 223.635127 41.420268 
L 227.436727 41.420268 
L 227.436727 29.220804 
L 231.238327 29.220804 
L 231.238327 37.250831 
L 235.039927 37.250831 
L 235.039927 43.891046 
L 238.841527 43.891046 
L 238.841527 56.399357 
L 242.643127 56.399357 
L 242.643127 56.399357 
L 246.444727 56.399357 
L 246.444727 67.981126 
L 250.246327 67.981126 
L 250.246327 66.745737 
L 254.047927 66.745737 
L 254.047927 96.240643 
L 257.849527 96.240643 
L 257.849527 88.210617 
L 261.651127 88.210617 
L 261.651127 104.425094 
L 265.452727 104.425094 
L 265.452727 117.705523 
L 269.254327 117.705523 
L 269.254327 117.859946 
L 273.055927 117.859946 
L 273.055927 113.999357 
L 276.857527 113.999357 
L 276.857527 129.132869 
L 280.659127 129.132869 
L 280.659127 133.611153 
L 284.460727 133.611153 
L 284.460727 150.134477 
L 288.262327 150.134477 
L 288.262327 141.64118 
L 292.063927 141.64118 
L 292.063927 158.318928 
L 295.865527 158.318928 
L 295.865527 160.326434 
L 299.667127 160.326434 
L 299.667127 175.923217 
L 303.468727 175.923217 
L 303.468727 182.872279 
L 307.270327 182.872279 
L 307.270327 190.284611 
L 311.071927 190.284611 
L 311.071927 195.071743 
L 314.873527 195.071743 
L 314.873527 194.145201 
L 318.675127 194.145201 
L 318.675127 198.623485 
L 322.476727 198.623485 
L 322.476727 203.256193 
L 326.278327 203.256193 
L 326.278327 217.30874 
L 330.079927 217.30874 
L 330.079927 214.220268 
L 333.881527 214.220268 
L 333.881527 215.301233 
L 337.683127 215.301233 
L 337.683127 223.794531 
L 341.484727 223.794531 
L 341.484727 227.346273 
L 345.286327 227.346273 
L 345.286327 227.963968 
L 349.087927 227.963968 
L 349.087927 230.434745 
L 352.889527 230.434745 
L 352.889527 235.839571 
L 356.691127 235.839571 
L 356.691127 237.692654 
L 360.492727 237.692654 
L 360.492727 234.913029 
L 364.294327 234.913029 
L 364.294327 235.993995 
L 368.095927 235.993995 
L 368.095927 241.862091 
L 371.897527 241.862091 
L 371.897527 240.317855 
L 375.699127 240.317855 
L 375.699127 242.325362 
L 379.500727 242.325362 
L 379.500727 244.950563 
L 383.302327 244.950563 
L 383.302327 245.722681 
L 387.103927 245.722681 
L 387.103927 244.950563 
L 390.905527 244.950563 
L 390.905527 245.877105 
L 394.707127 245.877105 
L 394.707127 247.42134 
L 398.508727 247.42134 
L 398.508727 249.12 
L 398.508727 249.12 
L 398.508727 249.12 
L 398.508727 249.12 
L 394.707127 249.12 
L 394.707127 249.12 
L 390.905527 249.12 
L 390.905527 249.12 
L 387.103927 249.12 
L 387.103927 249.12 
L 383.302327 249.12 
L 383.302327 249.12 
L 379.500727 249.12 
L 379.500727 249.12 
L 375.699127 249.12 
L 375.699127 249.12 
L 371.897527 249.12 
L 371.897527 249.12 
L 368.095927 249.12 
L 368.095927 249.12 
L 364.294327 249.12 
L 364.294327 249.12 
L 360.492727 249.12 
L 360.492727 249.12 
L 356.691127 249.12 
L 356.691127 249.12 
L 352.889527 249.12 
L 352.889527 249.12 
L 349.087927 249.12 
L 349.087927 249.12 
L 345.286327 249.12 
L 345.286327 249.12 
L 341.484727 249.12 
L 341.484727 249.12 
L 337.683127 249.12 
L 337.683127 249.12 
L 333.881527 249.12 
L 333.881527 249.12 
L 330.079927 249.12 
L 330.079927 249.12 
L 326.278327 249.12 
L 326.278327 249.12 
L 322.476727 249.12 
L 322.476727 249.12 
L 318.675127 249.12 
L 318.675127 249.12 
L 314.873527 249.12 
L 314.873527 249.12 
L 311.071927 249.12 
L 311.071927 249.12 
L 307.270327 249.12 
L 307.270327 249.12 
L 303.468727 249.12 
L 303.468727 249.12 
L 299.667127 249.12 
L 299.667127 249.12 
L 295.865527 249.12 
L 295.865527 249.12 
L 292.063927 249.12 
L 292.063927 249.12 
L 288.262327 249.12 
L 288.262327 249.12 
L 284.460727 249.12 
L 284.460727 249.12 
L 280.659127 249.12 
L 280.659127 249.12 
L 276.857527 249.12 
L 276.857527 249.12 
L 273.055927 249.12 
L 273.055927 249.12 
L 269.254327 249.12 
L 269.254327 249.12 
L 265.452727 249.12 
L 265.452727 249.12 
L 261.651127 249.12 
L 261.651127 249.12 
L 257.849527 249.12 
L 257.849527 249.12 
L 254.047927 249.12 
L 254.047927 249.12 
L 250.246327 249.12 
L 250.246327 249.12 
L 246.444727 249.12 
L 246.444727 249.12 
L 242.643127 249.12 
L 242.643127 249.12 
L 238.841527 249.12 
L 238.841527 249.12 
L 235.039927 249.12 
L 235.039927 249.12 
L 231.238327 249.12 
L 231.238327 249.12 
L 227.436727 249.12 
L 227.436727 249.12 
L 223.635127 249.12 
L 223.635127 249.12 
L 219.833527 249.12 
L 219.833527 249.12 
L 216.031927 249.12 
L 216.031927 249.12 
L 212.230327 249.12 
L 212.230327 249.12 
L 208.428727 249.12 
L 208.428727 249.12 
L 204.627127 249.12 
L 204.627127 249.12 
L 200.825527 249.12 
L 200.825527 249.12 
L 197.023927 249.12 
L 197.023927 249.12 
L 193.222327 249.12 
L 193.222327 249.12 
L 189.420727 249.12 
L 189.420727 249.12 
L 185.619127 249.12 
L 185.619127 249.12 
L 181.817527 249.12 
L 181.817527 249.12 
L 178.015927 249.12 
L 178.015927 249.12 
L 174.214327 249.12 
L 174.214327 249.12 
L 170.412727 249.12 
L 170.412727 249.12 
L 166.611127 249.12 
L 166.611127 249.12 
L 162.809527 249.12 
L 162.809527 249.12 
L 159.007927 249.12 
L 159.007927 249.12 
L 155.206327 249.12 
L 155.206327 249.12 
L 151.404727 249.12 
L 151.404727 249.12 
L 147.603127 249.12 
L 147.603127 249.12 
L 143.801527 249.12 
L 143.801527 249.12 
L 139.999927 249.12 
L 139.999927 249.12 
L 136.198327 249.12 
L 136.198327 249.12 
L 132.396727 249.12 
L 132.396727 249.12 
L 128.595127 249.12 
L 128.595127 249.12 
L 124.793527 249.12 
L 124.793527 249.12 
L 120.991927 249.12 
L 120.991927 249.12 
L 117.190327 249.12 
L 117.190327 249.12 
L 113.388727 249.12 
L 113.388727 249.12 
L 109.587127 249.12 
L 109.587127 249.12 
L 105.785527 249.12 
L 105.785527 249.12 
L 101.983927 249.12 
L 101.983927 249.12 
L 98.182327 249.12 
L 98.182327 249.12 
L 94.380727 249.12 
L 94.380727 249.12 
L 90.579127 249.12 
L 90.579127 249.12 
L 86.777527 249.12 
L 86.777527 249.12 
L 82.975927 249.12 
L 82.975927 249.12 
L 79.174327 249.12 
L 79.174327 249.12 
L 75.372727 249.12 
L 75.372727 249.12 
L 71.571127 249.12 
L 71.571127 249.12 
L 67.769527 249.12 
L 67.769527 249.12 
L 63.967927 249.12 
L 63.967927 249.12 
L 60.166327 249.12 
L 60.166327 249.12 
L 56.364727 249.12 
L 56.364727 249.12 
L 52.563127 249.12 
L 52.563127 249.12 
L 48.761527 249.12 
L 48.761527 249.12 
L 44.959927 249.12 
L 44.959927 249.12 
L 41.158327 249.12 
L 41.158327 249.12 
L 37.356727 249.12 
L 37.356727 249.12 
L 33.555127 249.12 
L 33.555127 249.12 
L 29.753527 249.12 
L 29.753527 249.12 
L 25.951927 249.12 
L 25.951927 249.12 
L 22.150327 249.12 
L 22.150327 249.12 
L 18.348727 249.12 
z
" style="fill:#1f77b4;"/>
   </g>
   <g id="matplotlib.axis_1">
    <g id="xtick_1">
     <g id="line2d_1">
      <defs>
       <path d="M 0 0 
L 0 3.5 
" id="m3f1f658c51" style="stroke:#000000;stroke-width:0.8;"/>
      </defs>
      <g>
       <use style="stroke:#000000;stroke-width:0.8;" x="19.341406" xlink:href="#m3f1f658c51" y="260.64"/>
      </g>
     </g>
     <g id="text_1">
      <!-- −3.0 -->
      <defs>
       <path d="M 10.59375 35.5 
L 73.1875 35.5 
L 73.1875 27.203125 
L 10.59375 27.203125 
z
" id="DejaVuSans-8722"/>
       <path d="M 40.578125 39.3125 
Q 47.65625 37.796875 51.625 33 
Q 55.609375 28.21875 55.609375 21.1875 
Q 55.609375 10.40625 48.1875 4.484375 
Q 40.765625 -1.421875 27.09375 -1.421875 
Q 22.515625 -1.421875 17.65625 -0.515625 
Q 12.796875 0.390625 7.625 2.203125 
L 7.625 11.71875 
Q 11.71875 9.328125 16.59375 8.109375 
Q 21.484375 6.890625 26.8125 6.890625 
Q 36.078125 6.890625 40.9375 10.546875 
Q 45.796875 14.203125 45.796875 21.1875 
Q 45.796875 27.640625 41.28125 31.265625 
Q 36.765625 34.90625 28.71875 34.90625 
L 20.21875 34.90625 
L 20.21875 43.015625 
L 29.109375 43.015625 
Q 36.375 43.015625 40.234375 45.921875 
Q 44.09375 48.828125 44.09375 54.296875 
Q 44.09375 59.90625 40.109375 62.90625 
Q 36.140625 65.921875 28.71875 65.921875 
Q 24.65625 65.921875 20.015625 65.03125 
Q 15.375 64.15625 9.8125 62.3125 
L 9.8125 71.09375 
Q 15.4375 72.65625 20.34375 73.4375 
Q 25.25 74.21875 29.59375 74.21875 
Q 40.828125 74.21875 47.359375 69.109375 
Q 53.90625 64.015625 53.90625 55.328125 
Q 53.90625 49.265625 50.4375 45.09375 
Q 46.96875 40.921875 40.578125 39.3125 
z
" id="DejaVuSans-51"/>
       <path d="M 10.6875 12.40625 
L 21 12.40625 
L 21 0 
L 10.6875 0 
z
" id="DejaVuSans-46"/>
       <path d="M 31.78125 66.40625 
Q 24.171875 66.40625 20.328125 58.90625 
Q 16.5 51.421875 16.5 36.375 
Q 16.5 21.390625 20.328125 13.890625 
Q 24.171875 6.390625 31.78125 6.390625 
Q 39.453125 6.390625 43.28125 13.890625 
Q 47.125 21.390625 47.125 36.375 
Q 47.125 51.421875 43.28125 58.90625 
Q 39.453125 66.40625 31.78125 66.40625 
z
M 31.78125 74.21875 
Q 44.046875 74.21875 50.515625 64.515625 
Q 56.984375 54.828125 56.984375 36.375 
Q 56.984375 17.96875 50.515625 8.265625 
Q 44.046875 -1.421875 31.78125 -1.421875 
Q 19.53125 -1.421875 13.0625 8.265625 
Q 6.59375 17.96875 6.59375 36.375 
Q 6.59375 54.828125 13.0625 64.515625 
Q 19.53125 74.21875 31.78125 74.21875 
z
" id="DejaVuSans-48"/>
      </defs>
      <g transform="translate(7.2 275.238438)scale(0.1 -0.1)">
       <use xlink:href="#DejaVuSans-8722"/>
       <use x="83.789062" xlink:href="#DejaVuSans-51"/>
       <use x="147.412109" xlink:href="#DejaVuSans-46"/>
       <use x="179.199219" xlink:href="#DejaVuSans-48"/>
      </g>
     </g>
    </g>
    <g id="xtick_2">
     <g id="line2d_2">
      <g>
       <use style="stroke:#000000;stroke-width:0.8;" x="113.246112" xlink:href="#m3f1f658c51" y="260.64"/>
      </g>
     </g>
     <g id="text_2">
      <!-- −1.5 -->
      <defs>
       <path d="M 12.40625 8.296875 
L 28.515625 8.296875 
L 28.515625 63.921875 
L 10.984375 60.40625 
L 10.984375 69.390625 
L 28.421875 72.90625 
L 38.28125 72.90625 
L 38.28125 8.296875 
L 54.390625 8.296875 
L 54.390625 0 
L 12.40625 0 
z
" id="DejaVuSans-49"/>
       <path d="M 10.796875 72.90625 
L 49.515625 72.90625 
L 49.515625 64.59375 
L 19.828125 64.59375 
L 19.828125 46.734375 
Q 21.96875 47.46875 24.109375 47.828125 
Q 26.265625 48.1875 28.421875 48.1875 
Q 40.625 48.1875 47.75 41.5 
Q 54.890625 34.8125 54.890625 23.390625 
Q 54.890625 11.625 47.5625 5.09375 
Q 40.234375 -1.421875 26.90625 -1.421875 
Q 22.3125 -1.421875 17.546875 -0.640625 
Q 12.796875 0.140625 7.71875 1.703125 
L 7.71875 11.625 
Q 12.109375 9.234375 16.796875 8.0625 
Q 21.484375 6.890625 26.703125 6.890625 
Q 35.15625 6.890625 40.078125 11.328125 
Q 45.015625 15.765625 45.015625 23.390625 
Q 45.015625 31 40.078125 35.4375 
Q 35.15625 39.890625 26.703125 39.890625 
Q 22.75 39.890625 18.8125 39.015625 
Q 14.890625 38.140625 10.796875 36.28125 
z
" id="DejaVuSans-53"/>
      </defs>
      <g transform="translate(101.104705 275.238438)scale(0.1 -0.1)">
       <use xlink:href="#DejaVuSans-8722"/>
       <use x="83.789062" xlink:href="#DejaVuSans-49"/>
       <use x="147.412109" xlink:href="#DejaVuSans-46"/>
       <use x="179.199219" xlink:href="#DejaVuSans-53"/>
      </g>
     </g>
    </g>
    <g id="xtick_3">
     <g id="line2d_3">
      <g>
       <use style="stroke:#000000;stroke-width:0.8;" x="207.150817" xlink:href="#m3f1f658c51" y="260.64"/>
      </g>
     </g>
     <g id="text_3">
      <!-- 0.0 -->
      <g transform="translate(199.199254 275.238438)scale(0.1 -0.1)">
       <use xlink:href="#DejaVuSans-48"/>
       <use x="63.623047" xlink:href="#DejaVuSans-46"/>
       <use x="95.410156" xlink:href="#DejaVuSans-48"/>
      </g>
     </g>
    </g>
    <g id="xtick_4">
     <g id="line2d_4">
      <g>
       <use style="stroke:#000000;stroke-width:0.8;" x="301.055522" xlink:href="#m3f1f658c51" y="260.64"/>
      </g>
     </g>
     <g id="text_4">
      <!-- 1.5 -->
      <g transform="translate(293.10396 275.238438)scale(0.1 -0.1)">
       <use xlink:href="#DejaVuSans-49"/>
       <use x="63.623047" xlink:href="#DejaVuSans-46"/>
       <use x="95.410156" xlink:href="#DejaVuSans-53"/>
      </g>
     </g>
    </g>
    <g id="xtick_5">
     <g id="line2d_5">
      <g>
       <use style="stroke:#000000;stroke-width:0.8;" x="394.960227" xlink:href="#m3f1f658c51" y="260.64"/>
      </g>
     </g>
     <g id="text_5">
      <!-- 3.0 -->
      <g transform="translate(387.008665 275.238438)scale(0.1 -0.1)">
       <use xlink:href="#DejaVuSans-51"/>
       <use x="63.623047" xlink:href="#DejaVuSans-46"/>
       <use x="95.410156" xlink:href="#DejaVuSans-48"/>
      </g>
     </g>
    </g>
    <g id="text_6">
     <!-- $x_1$ -->
     <defs>
      <path d="M 60.015625 54.6875 
L 34.90625 27.875 
L 50.296875 0 
L 39.984375 0 
L 28.421875 21.6875 
L 8.296875 0 
L -2.59375 0 
L 24.3125 28.8125 
L 10.015625 54.6875 
L 20.3125 54.6875 
L 30.8125 34.90625 
L 49.125 54.6875 
z
" id="DejaVuSans-Oblique-120"/>
     </defs>
     <g transform="translate(203.078727 288.916562)scale(0.1 -0.1)">
      <use transform="translate(0 0.3125)" xlink:href="#DejaVuSans-Oblique-120"/>
      <use transform="translate(59.179688 -16.09375)scale(0.7)" xlink:href="#DejaVuSans-49"/>
     </g>
    </g>
   </g>
   <g id="matplotlib.axis_2">
    <g id="ytick_1">
     <g id="line2d_6">
      <defs>
       <path d="M 0 0 
L -3.5 0 
" id="m4b311aa5b1" style="stroke:#000000;stroke-width:0.8;"/>
      </defs>
      <g>
       <use style="stroke:#000000;stroke-width:0.8;" x="18.348727" xlink:href="#m4b311aa5b1" y="249.12"/>
      </g>
     </g>
    </g>
    <g id="ytick_2">
     <g id="line2d_7">
      <g>
       <use style="stroke:#000000;stroke-width:0.8;" x="18.348727" xlink:href="#m4b311aa5b1" y="192.997001"/>
      </g>
     </g>
    </g>
    <g id="ytick_3">
     <g id="line2d_8">
      <g>
       <use style="stroke:#000000;stroke-width:0.8;" x="18.348727" xlink:href="#m4b311aa5b1" y="136.874001"/>
      </g>
     </g>
    </g>
    <g id="ytick_4">
     <g id="line2d_9">
      <g>
       <use style="stroke:#000000;stroke-width:0.8;" x="18.348727" xlink:href="#m4b311aa5b1" y="80.751002"/>
      </g>
     </g>
    </g>
    <g id="ytick_5">
     <g id="line2d_10">
      <g>
       <use style="stroke:#000000;stroke-width:0.8;" x="18.348727" xlink:href="#m4b311aa5b1" y="24.628002"/>
      </g>
     </g>
    </g>
   </g>
   <g id="patch_3">
    <path d="M 18.348727 260.64 
L 18.348727 7.2 
" style="fill:none;stroke:#000000;stroke-linecap:square;stroke-linejoin:miter;stroke-width:0.8;"/>
   </g>
   <g id="patch_4">
    <path d="M 398.508727 260.64 
L 398.508727 7.2 
" style="fill:none;stroke:#000000;stroke-linecap:square;stroke-linejoin:miter;stroke-width:0.8;"/>
   </g>
   <g id="patch_5">
    <path d="M 18.348727 260.64 
L 398.508727 260.64 
" style="fill:none;stroke:#000000;stroke-linecap:square;stroke-linejoin:miter;stroke-width:0.8;"/>
   </g>
   <g id="patch_6">
    <path d="M 18.348727 7.2 
L 398.508727 7.2 
" style="fill:none;stroke:#000000;stroke-linecap:square;stroke-linejoin:miter;stroke-width:0.8;"/>
   </g>
  </g>
 </g>
 <defs>
  <clipPath id="p82a4adcb4b">
   <rect height="253.44" width="380.16" x="18.348727" y="7.2"/>
  </clipPath>
 </defs>
</svg>
